<?xml version="1.0" standalone="no"?>
<!DOCTYPE svg PUBLIC "-//W3C//DTD SVG 20010904//EN"
 "http://www.w3.org/TR/2001/REC-SVG-20010904/DTD/svg10.dtd">
<svg version="1.0" xmlns="http://www.w3.org/2000/svg"
 width="272.000000pt" height="300.000000pt" viewBox="0 0 272.000000 300.000000"
 preserveAspectRatio="xMidYMid meet">

<g transform="translate(0.000000,300.000000) scale(0.100000,-0.100000)"
fill="#000000" stroke="none">
<path d="M508 2560 c-122 -172 -187 -349 -204 -557 -5 -68 7 -237 21 -284 4
-11 49 -23 178 -47 94 -18 205 -38 244 -46 40 -7 71 -11 69 -7 -2 3 -56 211
-120 461 -64 250 -122 475 -129 500 l-13 44 -46 -64z"/>
<path d="M1122 2443 c3 -10 34 -172 69 -360 35 -189 67 -342 71 -340 12 4 567
641 563 646 -5 4 -641 70 -684 71 -17 0 -22 -4 -19 -17z"/>
<path d="M2271 1847 c-57 -205 -107 -375 -111 -380 -3 -4 -207 53 -453 127
l-447 135 -217 -63 -218 -62 -6 -89 c-4 -50 -10 -178 -14 -286 l-7 -197 44
-26 c173 -101 413 -151 625 -129 126 14 272 60 400 128 254 134 449 384 524
672 30 116 37 313 15 437 -10 53 -21 98 -25 100 -3 2 -53 -163 -110 -367z"/>
<path d="M10 327 c0 -203 1 -218 18 -215 15 3 17 20 20 168 l3 164 174 -174
175 -175 0 223 c0 122 -3 222 -7 222 -4 0 -49 -42 -100 -92 l-93 -93 -95 95
-95 95 0 -218z m350 -2 c0 -63 -3 -115 -7 -115 -11 0 -113 103 -113 114 0 12
101 116 112 116 4 0 8 -52 8 -115z"/>
<path d="M2610 280 c0 -162 1 -170 20 -170 18 0 20 8 22 113 l3 112 28 3 c19
2 27 9 27 23 0 14 -7 19 -30 19 -28 0 -30 3 -30 35 0 28 -4 35 -20 35 -19 0
-20 -7 -20 -170z"/>
<path d="M2393 379 c-39 -11 -80 -59 -88 -102 -3 -18 -5 -86 -3 -152 3 -112 4
-120 23 -120 18 0 20 8 23 68 l3 67 63 0 c55 0 64 3 69 20 5 19 0 20 -64 20
l-69 0 0 55 c0 46 4 60 25 80 30 31 75 33 100 5 21 -24 38 -25 54 -6 10 11 5
19 -21 39 -41 30 -73 37 -115 26z"/>
<path d="M552 360 c-67 -41 -89 -116 -52 -178 38 -63 114 -88 170 -57 17 9 29
10 37 3 7 -6 20 -8 28 -4 22 8 22 234 0 242 -8 4 -21 2 -28 -4 -8 -7 -20 -6
-37 3 -36 20 -80 18 -118 -5z m123 -55 c17 -16 25 -35 25 -60 0 -25 -8 -44
-25 -60 -53 -54 -145 -16 -145 60 0 49 36 85 85 85 25 0 44 -8 60 -25z"/>
<path d="M909 357 c-76 -50 -87 -141 -25 -203 52 -52 118 -55 180 -9 20 15 20
15 1 29 -17 12 -22 12 -39 0 -56 -39 -136 3 -136 71 0 70 80 110 138 69 20
-14 24 -14 39 1 14 14 14 18 2 26 -67 45 -110 50 -160 16z"/>
<path d="M1230 369 c-14 -3 -37 -4 -52 -1 l-28 5 0 -132 c0 -121 2 -132 18
-129 14 3 18 18 22 96 5 103 17 122 71 122 22 0 39 15 39 35 0 7 -47 10 -70 4z"/>
<path d="M1411 362 c-65 -35 -88 -115 -53 -181 36 -67 121 -90 183 -48 93 62
83 191 -17 233 -45 19 -73 18 -113 -4z m124 -57 c56 -55 16 -145 -63 -145 -51
0 -84 34 -84 85 0 78 92 116 147 60z"/>
<path d="M1750 370 c-42 -10 -62 -36 -58 -75 3 -31 32 -51 103 -72 32 -9 46
-40 23 -54 -18 -12 -65 -11 -88 1 -15 8 -21 6 -30 -9 -13 -26 15 -43 75 -43
51 -1 92 22 101 56 13 53 -19 86 -98 100 -43 8 -55 21 -38 41 14 17 57 20 80
5 15 -9 40 4 40 22 0 7 -63 40 -72 37 -2 -1 -19 -5 -38 -9z"/>
<path d="M2034 366 c-99 -43 -107 -172 -15 -233 114 -76 253 65 181 182 -22
35 -74 65 -112 65 -12 -1 -37 -7 -54 -14z m116 -61 c53 -56 15 -145 -62 -145
-52 0 -88 35 -88 85 0 77 97 116 150 60z"/>
</g>
</svg>
